<?xml version="1.0" encoding="utf-8"?>
<!-- Generator: Adobe Illustrator 16.0.3, SVG Export Plug-In . SVG Version: 6.00 Build 0)  -->
<!DOCTYPE svg PUBLIC "-//W3C//DTD SVG 1.1//EN" "http://www.w3.org/Graphics/SVG/1.1/DTD/svg11.dtd">
<svg version="1.1" id="Layer_1" xmlns="http://www.w3.org/2000/svg" xmlns:xlink="http://www.w3.org/1999/xlink" x="0px" y="0px"
	 width="96px" height="96px" viewBox="0 0 96 96" style="enable-background:new 0 0 96 96;" xml:space="preserve">
<g>
	<g>
		<path d="M88.359,45.12c-6.14-6.139-12.278-12.279-18.418-18.418c-1.946-1.946-5.431-0.514-5.431,2.244c0,4.021,0,8.042,0,12.063
			c-17.196,0-34.394,0-51.591,0c-8.232,0-8.306,12.752-0.091,12.752c17.227,0,34.454,0,51.682,0c0,3.989,0,7.979,0,11.968
			c0.003,0.124,0.014,0.246,0.032,0.368c0.114,1.318,0.905,2.175,1.907,2.554c0.992,0.494,2.2,0.481,3.25-0.388
			c0.14-0.101,0.269-0.215,0.389-0.341c6.098-6.098,12.196-12.195,18.294-18.293C89.616,48.396,89.583,46.343,88.359,45.12z"/>
	</g>
</g>
</svg>
