<?xml version="1.0" encoding="utf-8"?>
<!-- Generator: Adobe Illustrator 16.0.3, SVG Export Plug-In . SVG Version: 6.00 Build 0)  -->
<!DOCTYPE svg PUBLIC "-//W3C//DTD SVG 1.1//EN" "http://www.w3.org/Graphics/SVG/1.1/DTD/svg11.dtd">
<svg version="1.1" id="Layer_1" xmlns="http://www.w3.org/2000/svg" xmlns:xlink="http://www.w3.org/1999/xlink" x="0px" y="0px"
	 width="127.999px" height="128px" viewBox="0 0 127.999 128" style="enable-background:new 0 0 127.999 128;" xml:space="preserve"
	>
<style type="text/css">
<![CDATA[
	.st0{fill:#231F20;}
]]>
</style>
<g>
	<path class="st0" d="M76.58,107.014c-0.387,0-0.777-0.074-1.148-0.229c-1.121-0.464-1.852-1.558-1.852-2.771V82.311H11.406
		c-1.658,0-3-1.343-3-3V48.691c0-1.657,1.342-3,3-3H73.58V23.987c0-1.213,0.73-2.307,1.852-2.771c1.123-0.465,2.414-0.208,3.27,0.65
		l40.014,40.014c1.172,1.171,1.172,3.071,0,4.242l-40.014,40.013C78.129,106.709,77.361,107.014,76.58,107.014z"/>
</g>
</svg>
